<mxfile host="app.diagrams.net" modified="2023-01-14T23:46:38.551Z" agent="5.0 (Windows)" etag="HVT8IqU-S-bMBplBhqE3" version="20.8.1" type="github">
  <diagram name="Page-1" id="c4acf3e9-155e-7222-9cf6-157b1a14988f">
    <mxGraphModel dx="1912" dy="940" grid="1" gridSize="10" guides="1" tooltips="1" connect="1" arrows="1" fold="1" page="1" pageScale="1" pageWidth="827" pageHeight="1169" background="none" math="0" shadow="0">
      <root>
        <mxCell id="0" />
        <mxCell id="1" parent="0" />
        <mxCell id="r1uEUr1s6ltwUHR9csTd-1" value="Article" style="swimlane;fontStyle=0;childLayout=stackLayout;horizontal=1;startSize=26;fillColor=none;horizontalStack=0;resizeParent=1;resizeParentMax=0;resizeLast=0;collapsible=1;marginBottom=0;" parent="1" vertex="1">
          <mxGeometry x="50" y="830" width="140" height="90" as="geometry" />
        </mxCell>
        <mxCell id="r1uEUr1s6ltwUHR9csTd-2" value="id: integer&#xa;titre : string&#xa;texte : string&#xa;creation : datetime" style="text;strokeColor=none;fillColor=none;align=left;verticalAlign=top;spacingLeft=4;spacingRight=4;overflow=hidden;rotatable=0;points=[[0,0.5],[1,0.5]];portConstraint=eastwest;" parent="r1uEUr1s6ltwUHR9csTd-1" vertex="1">
          <mxGeometry y="26" width="140" height="64" as="geometry" />
        </mxCell>
        <mxCell id="r1uEUr1s6ltwUHR9csTd-5" value="Users" style="swimlane;fontStyle=0;childLayout=stackLayout;horizontal=1;startSize=26;fillColor=none;horizontalStack=0;resizeParent=1;resizeParentMax=0;resizeLast=0;collapsible=1;marginBottom=0;" parent="1" vertex="1">
          <mxGeometry x="50" y="580" width="140" height="180" as="geometry" />
        </mxCell>
        <mxCell id="r1uEUr1s6ltwUHR9csTd-8" value="id: integer&#xa;email : string&#xa;password : string&#xa;name : string&#xa;firstname: string&#xa;" style="text;strokeColor=none;fillColor=none;align=left;verticalAlign=top;spacingLeft=4;spacingRight=4;overflow=hidden;rotatable=0;points=[[0,0.5],[1,0.5]];portConstraint=eastwest;" parent="r1uEUr1s6ltwUHR9csTd-5" vertex="1">
          <mxGeometry y="26" width="140" height="154" as="geometry" />
        </mxCell>
        <mxCell id="r1uEUr1s6ltwUHR9csTd-9" value="&lt;div&gt;Est l&#39;auteur&lt;/div&gt;" style="endArrow=none;html=1;endSize=12;startArrow=none;startSize=14;startFill=0;edgeStyle=orthogonalEdgeStyle;rounded=0;endFill=0;" parent="1" source="r1uEUr1s6ltwUHR9csTd-1" target="r1uEUr1s6ltwUHR9csTd-5" edge="1">
          <mxGeometry relative="1" as="geometry">
            <mxPoint x="160" y="840" as="sourcePoint" />
            <mxPoint x="230" y="-300.48" as="targetPoint" />
          </mxGeometry>
        </mxCell>
        <mxCell id="r1uEUr1s6ltwUHR9csTd-10" value="0..n" style="edgeLabel;resizable=0;html=1;align=left;verticalAlign=top;" parent="r1uEUr1s6ltwUHR9csTd-9" connectable="0" vertex="1">
          <mxGeometry x="-1" relative="1" as="geometry">
            <mxPoint y="-30" as="offset" />
          </mxGeometry>
        </mxCell>
        <mxCell id="r1uEUr1s6ltwUHR9csTd-11" value="1" style="edgeLabel;resizable=0;html=1;align=right;verticalAlign=top;" parent="r1uEUr1s6ltwUHR9csTd-9" connectable="0" vertex="1">
          <mxGeometry x="1" relative="1" as="geometry">
            <mxPoint x="10" as="offset" />
          </mxGeometry>
        </mxCell>
        <mxCell id="f_Fksj5VNuUpb4RnA_M--1" value="ApplicationParams" style="swimlane;fontStyle=1;align=center;verticalAlign=middle;childLayout=stackLayout;horizontal=1;startSize=29;horizontalStack=0;resizeParent=1;resizeParentMax=0;resizeLast=0;collapsible=0;marginBottom=0;html=1;" parent="1" vertex="1">
          <mxGeometry x="40" y="40" width="140" height="190" as="geometry" />
        </mxCell>
        <mxCell id="f_Fksj5VNuUpb4RnA_M--2" value="&lt;div&gt;id:integer&lt;/div&gt;&lt;div&gt;name :varchar&lt;br&gt;&lt;/div&gt;&lt;div&gt;boolValue: boolean&lt;/div&gt;&lt;div&gt;intValue: integer&lt;br&gt;&lt;/div&gt;&lt;div&gt;floatValue:float&lt;/div&gt;&lt;div&gt;textValue:text&lt;br&gt;&lt;/div&gt;" style="text;html=1;strokeColor=none;fillColor=none;align=left;verticalAlign=top;spacingLeft=4;spacingRight=4;overflow=hidden;rotatable=0;points=[[0,0.5],[1,0.5]];portConstraint=eastwest;" parent="f_Fksj5VNuUpb4RnA_M--1" vertex="1">
          <mxGeometry y="29" width="140" height="161" as="geometry" />
        </mxCell>
        <mxCell id="yozUyFXdbr2WYpKYGwVX-1" value="&lt;div&gt;Est&lt;br&gt;&lt;/div&gt;" style="endArrow=none;html=1;endSize=12;startArrow=none;startSize=14;startFill=0;edgeStyle=orthogonalEdgeStyle;rounded=0;endFill=0;" edge="1" parent="1" source="yozUyFXdbr2WYpKYGwVX-4" target="r1uEUr1s6ltwUHR9csTd-5">
          <mxGeometry relative="1" as="geometry">
            <mxPoint x="110" y="530" as="sourcePoint" />
            <mxPoint x="120" y="150" as="targetPoint" />
          </mxGeometry>
        </mxCell>
        <mxCell id="yozUyFXdbr2WYpKYGwVX-2" value="1" style="edgeLabel;resizable=0;html=1;align=left;verticalAlign=top;" connectable="0" vertex="1" parent="yozUyFXdbr2WYpKYGwVX-1">
          <mxGeometry x="-1" relative="1" as="geometry">
            <mxPoint as="offset" />
          </mxGeometry>
        </mxCell>
        <mxCell id="yozUyFXdbr2WYpKYGwVX-3" value="1" style="edgeLabel;resizable=0;html=1;align=right;verticalAlign=top;" connectable="0" vertex="1" parent="yozUyFXdbr2WYpKYGwVX-1">
          <mxGeometry x="1" relative="1" as="geometry">
            <mxPoint x="10" y="-30" as="offset" />
          </mxGeometry>
        </mxCell>
        <mxCell id="yozUyFXdbr2WYpKYGwVX-4" value="UserCredentials" style="swimlane;fontStyle=0;childLayout=stackLayout;horizontal=1;startSize=26;fillColor=none;horizontalStack=0;resizeParent=1;resizeParentMax=0;resizeLast=0;collapsible=1;marginBottom=0;" vertex="1" parent="1">
          <mxGeometry x="40" y="320" width="160" height="180" as="geometry" />
        </mxCell>
        <mxCell id="yozUyFXdbr2WYpKYGwVX-5" value="id: integer&#xa;login : string&#xa;password : string&#xa;lastChanged : dateTime&#xa;" style="text;strokeColor=none;fillColor=none;align=left;verticalAlign=top;spacingLeft=4;spacingRight=4;overflow=hidden;rotatable=0;points=[[0,0.5],[1,0.5]];portConstraint=eastwest;" vertex="1" parent="yozUyFXdbr2WYpKYGwVX-4">
          <mxGeometry y="26" width="160" height="154" as="geometry" />
        </mxCell>
        <mxCell id="yozUyFXdbr2WYpKYGwVX-6" value="Roles" style="swimlane;fontStyle=0;childLayout=stackLayout;horizontal=1;startSize=26;fillColor=none;horizontalStack=0;resizeParent=1;resizeParentMax=0;resizeLast=0;collapsible=1;marginBottom=0;" vertex="1" parent="1">
          <mxGeometry x="290" y="370" width="160" height="80" as="geometry" />
        </mxCell>
        <mxCell id="yozUyFXdbr2WYpKYGwVX-7" value="id: integer&#xa;role :string" style="text;strokeColor=none;fillColor=none;align=left;verticalAlign=top;spacingLeft=4;spacingRight=4;overflow=hidden;rotatable=0;points=[[0,0.5],[1,0.5]];portConstraint=eastwest;" vertex="1" parent="yozUyFXdbr2WYpKYGwVX-6">
          <mxGeometry y="26" width="160" height="54" as="geometry" />
        </mxCell>
        <mxCell id="yozUyFXdbr2WYpKYGwVX-8" value="a le role" style="endArrow=none;html=1;endSize=12;startArrow=none;startSize=14;startFill=0;edgeStyle=orthogonalEdgeStyle;rounded=0;endFill=0;" edge="1" parent="1" source="yozUyFXdbr2WYpKYGwVX-4" target="yozUyFXdbr2WYpKYGwVX-6">
          <mxGeometry relative="1" as="geometry">
            <mxPoint x="310" y="520" as="sourcePoint" />
            <mxPoint x="350" y="410" as="targetPoint" />
            <Array as="points" />
          </mxGeometry>
        </mxCell>
        <mxCell id="yozUyFXdbr2WYpKYGwVX-9" value="0..n" style="edgeLabel;resizable=0;html=1;align=left;verticalAlign=top;" connectable="0" vertex="1" parent="yozUyFXdbr2WYpKYGwVX-8">
          <mxGeometry x="-1" relative="1" as="geometry">
            <mxPoint x="10" as="offset" />
          </mxGeometry>
        </mxCell>
        <mxCell id="yozUyFXdbr2WYpKYGwVX-10" value="0.n" style="edgeLabel;resizable=0;html=1;align=right;verticalAlign=top;" connectable="0" vertex="1" parent="yozUyFXdbr2WYpKYGwVX-8">
          <mxGeometry x="1" relative="1" as="geometry">
            <mxPoint x="-10" as="offset" />
          </mxGeometry>
        </mxCell>
      </root>
    </mxGraphModel>
  </diagram>
</mxfile>
